<svg width="155" height="155" viewBox="0 0 155 155" fill="none" xmlns="http://www.w3.org/2000/svg">
<circle cx="77.5" cy="77.5" r="77.5" fill="#A90641"/>
<path d="M56.4706 24C53.4284 24 50.5108 25.2035 48.3597 27.3457C46.2085 29.488 45 32.3935 45 35.4231V111.577C45 114.607 46.2085 117.512 48.3597 119.654C50.5108 121.797 53.4284 123 56.4706 123H98.5294C101.572 123 104.489 121.797 106.64 119.654C108.791 117.512 110 114.607 110 111.577V35.4231C110 32.3935 108.791 29.488 106.64 27.3457C104.489 25.2035 101.572 24 98.5294 24H56.4706ZM73.6765 27.8077H81.3235C81.8306 27.8077 82.3168 28.0083 82.6754 28.3653C83.0339 28.7224 83.2353 29.2066 83.2353 29.7115C83.2353 30.2165 83.0339 30.7007 82.6754 31.0578C82.3168 31.4148 81.8306 31.6154 81.3235 31.6154H73.6765C73.1694 31.6154 72.6832 31.4148 72.3246 31.0578C71.9661 30.7007 71.7647 30.2165 71.7647 29.7115C71.7647 29.2066 71.9661 28.7224 72.3246 28.3653C72.6832 28.0083 73.1694 27.8077 73.6765 27.8077ZM54.5588 35.4231H100.441C100.948 35.4231 101.434 35.6237 101.793 35.9807C102.152 36.3377 102.353 36.822 102.353 37.3269V102.058C102.353 102.563 102.152 103.047 101.793 103.404C101.434 103.761 100.948 103.962 100.441 103.962H54.5588C54.0518 103.962 53.5655 103.761 53.207 103.404C52.8485 103.047 52.6471 102.563 52.6471 102.058V37.3269C52.6471 36.822 52.8485 36.3377 53.207 35.9807C53.5655 35.6237 54.0518 35.4231 54.5588 35.4231ZM82.9982 54.4615C81.4191 54.5643 79.6526 55.5353 78.5744 56.8413C77.5956 58.0217 76.7047 59.7695 77.0221 61.4829C78.7465 61.5286 80.5321 60.5462 81.5644 59.2212C82.5279 57.9875 83.2659 56.2435 82.9982 54.4615ZM72.3612 61.243C70.1053 61.243 67.6697 62.7128 66.1479 65.0507C63.9991 68.333 64.3509 74.4138 67.8226 79.6875C69.0691 81.5685 70.7897 83.7122 72.9615 83.7351C74.8847 83.7541 75.3588 82.5585 77.9779 82.5433C80.5971 82.528 81.0635 83.7541 82.9982 83.7351C85.1624 83.7122 87.0129 81.4505 88.2518 79.5695C89.0015 78.4421 89.6416 77.2462 90.1635 75.9978C85.1356 74.1054 84.2371 66.9279 89.2076 64.2168C87.6935 62.3358 85.6021 61.2468 83.5947 61.2468C80.9374 61.2468 79.8247 62.5529 77.9779 62.5529C76.0738 62.5529 74.6629 61.243 72.3612 61.243ZM77.5 108.607C80.1994 108.607 82.3979 110.796 82.3979 113.485C82.3979 116.173 80.1994 118.362 77.5 118.362C76.2016 118.36 74.957 117.846 74.0389 116.931C73.1208 116.017 72.6041 114.778 72.6021 113.485C72.6021 110.796 74.8006 108.607 77.5 108.607Z" fill="#FFFCFC"/>
</svg>
